<?xml version="1.0" standalone="no"?>
<!DOCTYPE svg PUBLIC "-//W3C//DTD SVG 20010904//EN"
 "http://www.w3.org/TR/2001/REC-SVG-20010904/DTD/svg10.dtd">
<svg version="1.0" xmlns="http://www.w3.org/2000/svg"
 width="1024.000000pt" height="1024.000000pt" viewBox="0 0 1024.000000 1024.000000"
 preserveAspectRatio="xMidYMid meet">

<g transform="translate(0.000000,1024.000000) scale(0.100000,-0.100000)"
fill="#000000" stroke="none">
<path d="M0 5120 l0 -5120 5120 0 5120 0 0 5120 0 5120 -5120 0 -5120 0 0
-5120z m4635 1802 c134 -38 234 -84 340 -155 68 -47 235 -204 235 -222 0 -6
-99 -110 -220 -230 l-221 -217 -37 43 c-62 74 -114 118 -177 150 -213 105
-450 28 -548 -179 -29 -61 -32 -75 -32 -164 l0 -98 -63 63 c-121 119 -207 264
-238 405 -22 100 -16 327 10 366 46 71 276 199 421 235 117 29 125 30 300 26
121 -3 177 -8 230 -23z m2265 -291 l0 -309 -97 -7 c-54 -5 -170 -5 -258 -3
-88 3 -239 3 -335 -1 -168 -6 -178 -8 -240 -37 -95 -45 -153 -101 -197 -192
l-38 -76 -3 -298 -3 -298 368 -2 368 -3 3 -312 2 -313 -370 0 -370 0 0 -765 0
-765 -310 0 -310 0 0 60 c0 33 4 60 9 60 18 0 190 171 240 238 288 390 289
923 3 1308 -56 76 -223 244 -243 244 -5 0 -9 165 -9 416 0 381 2 424 21 517
87 427 443 761 879 826 118 17 124 18 518 19 l372 2 0 -309z m-3319 -121 c-12
-312 138 -578 454 -805 34 -24 164 -106 291 -183 310 -188 540 -332 649 -406
106 -72 255 -216 310 -301 194 -297 216 -625 66 -968 -35 -81 -175 -279 -156
-223 3 11 6 71 6 135 0 299 -137 533 -446 761 -85 63 -475 311 -795 505 -163
99 -188 116 -278 194 -138 119 -254 301 -304 476 -20 71 -23 101 -22 260 0
206 14 274 82 418 31 65 134 227 145 227 1 0 0 -41 -2 -90z m1305 -2202 c105
-111 175 -228 216 -358 19 -62 23 -97 23 -200 0 -175 -16 -225 -93 -285 -76
-61 -278 -159 -377 -185 -260 -67 -508 -42 -750 74 -127 62 -227 130 -324 222
-70 66 -151 163 -151 181 0 5 95 101 211 213 l211 203 26 -34 c47 -62 159
-167 223 -209 83 -54 171 -80 268 -80 179 0 311 82 384 239 28 59 31 76 32
161 0 52 -3 110 -7 128 l-8 34 38 -30 c20 -17 55 -50 78 -74z"/>
</g>
</svg>
